<svg width="180" height="60" viewBox="0 0 180 60" fill="none" xmlns="http://www.w3.org/2000/svg" role="img" aria-label="Thoth">
  <g transform="translate(2 2) scale(0.302)">
    <path fill="#FFB900" d="M190.569 91.041c-.295-2.956-4.414-4.477-7.98-6.208s-18.051-9.568-20.405-11.73-21.393-10.459-25.027-12.223-25.624-12.424-30-13.301-19.746-3.241-22.111-2.946-8.276-.295-10.346.887-10.029 5.424-11.528 6.503-4.05 5.002-6.016 5.309-3.444 1.194-4.035.603-4.729-5.616-5.025-7.685 2.364-11.232 4.138-13.006 5.617-9.459 7.686-11.232 4.138-2.661 5.32-4.729-1.499-6.311-2.375-8.18-3.153-6.03-5.709-8.679S50.757-.295 46.028 0s-9.186.589-12.722 3.103-11.021 10.22-13.585 12.563-7.98 7.981-9.754 10.937-5.912 8.867-6.504 10.345S.792 43.102.792 43.102c-2.059 11.581.306 13.65 2.08 13.65S5.324 44.39 6.156 43.746 12.035 30.74 16.173 28.08s6.207-2.66 9.163-2.956-.295-1.479 5.321-1.183 9.163 4.73 10.641 7.686 3.547 5.32 2.069 10.345-1.751 8.971-1.478 10.05 3.01 5.342 4.138 7.094 5.912 8.276 7.39 9.754 3.843 6.208 5.025 6.799 6.707 7.411 12.71 10.937 10.049 10.049 12.119 11.528 5.025 6.503 5.912 7.686.908 2.766 0 5.024-5.891 10.207-6.503 11.232-11.232 16.553-12.71 17.735-1.478 3.29-4.444 3.29-5.901.553-7.675-2.107-2.956-.296-4.138 1.478-2.311 2.978-4.434-1.478-7.39 3.547-7.686 5.616 1.773 6.207 6.503 5.32 4.138-2.069 5.025-2.069 1.287 1.498 2.661 1.773 2.364 0 3.547-.887 3.569-1.17 4.729.592 5.321 1.182 6.503.591 4.638-1.161 5.616-.591 4.138 1.182 5.912-.592 3.547 2.354 5.901 2.354 2.967-2.648 5.627-1.762 3.251 2.66 5.32 2.66 4.434 2.364 5.616 3.547 10.05 8.276 10.937 10.05.592 7.095.592 9.459-.295.886 0 5.024 5.32 4.729 5.32-.591V152.52s10.938 1.479 12.415-2.364 1.772-3.251 1.182-7.98-4.435-.591-4.729-.887-1.793-.316-3.113-1.784-1.892 1.154-3.39 2.375-2.363.887-3.842 0-1.37-3.821-2.069-7.094-.699-12.71-.699-15.381-.205-5.523-1.97-6.304-.207-5.232 1.97-6.11 7.201-1.47 12.227-1.765 7.98-1.477 15.075-1.182 7.391 1.478 11.528 2.66 10.937 2.364 13.597 2.66 10.051 1.182 12.415.591 5.911-4.729 7.98-7.685.885-8.273.59-11.229zM39.793 11.374c-1.302 1.309-5.141 1.93-5.623 1.629-.482-.301-.333-1.923.468-2.728.8-.806 1.332-1.045 1.332-1.045 1.994-1.122 5.126.834 3.823 2.144zm76.289 141.148s.295 7.686-.592 7.686-2.955-2.069-3.251-2.364-4.739-4.741-4.739-4.741l-.581-.875 9.163.294zm-1.478-13.596c0 2.069-.018 4.177-1.488 4.177s-1.467-1.812-4.128-1.812-2.66 2.955-4.729 2.66-1.792-.849-4.739-.849-2.363-1.831-4.129-1.812-.317 1.812-2.08 1.812-.581-1.221-3.241-1.221-1.183 2.069-3.547 2.069-.295-1.479-4.138-1.479 1.751.63-2.967.63-2.945-2.699-2.945-2.699 9.163-15.074 10.346-16.553c.557-.696 1.967-2.771 3.395-4.936 1.602-2.43 3.226-4.974 3.689-5.812.062-.111.119-.234.173-.367.708-1.763.746-5.329 1.02-7.803.188-1.694.616-2.669 1.36-3.382.424-.407.952-.729 1.596-1.052 1.774-.887 7.981 3.547 9.105 4.128s.944 1.783 1.24 3.853 2.049 4.623 3.843 7.094 1.773 6.503 1.773 6.503.591 14.781.591 16.851z"/>
  </g>
  <text x="72" y="39" font-family="'Geist','Segoe UI',system-ui,-apple-system,Roboto,Arial,sans-serif" font-size="29" font-weight="700" letter-spacing="-0.6" textLength="84" lengthAdjust="spacing" fill="#ece9e4">Thoth</text>
  <rect x="164" y="19" width="4" height="22" rx="2" fill="#ffb900">
    <animate attributeName="opacity" values="1;1;0;0" keyTimes="0;0.49;0.5;1" dur="1.1s" repeatCount="indefinite"/>
  </rect>
</svg>
